<svg xmlns="http://www.w3.org/2000/svg" viewBox="0 0 512 512" role="img" aria-label="Campus Quiz">
  <rect width="512" height="512" rx="96" fill="#0f766e"/>
  <path fill="#facc15" d="M116 154c0-24 20-44 44-44h192c24 0 44 20 44 44v204c0 24-20 44-44 44H160c-24 0-44-20-44-44V154Z"/>
  <path fill="#083344" d="M176 178h160v34H176v-34Zm0 74h160v34H176v-34Zm0 74h104v34H176v-34Z"/>
  <circle cx="352" cy="342" r="56" fill="#2563eb"/>
  <path fill="#fff" d="m326 341 17 17 38-45 20 17-57 67-38-38 20-18Z"/>
</svg>
